<svg xmlns="http://www.w3.org/2000/svg" xmlns:xlink="http://www.w3.org/1999/xlink" viewBox="0 0 316.36 254.26"><defs><style>.cls-1{isolation:isolate;}.cls-10,.cls-14,.cls-2,.cls-3,.cls-4,.cls-5{fill:none;}.cls-14,.cls-2,.cls-22,.cls-3,.cls-4{stroke:#fff;}.cls-14,.cls-2,.cls-22,.cls-3,.cls-4,.cls-5{stroke-miterlimit:10;}.cls-2{stroke-width:2.16px;}.cls-3{stroke-width:0.81px;}.cls-4{stroke-width:1.08px;}.cls-5{stroke:#f7f8f8;}.cls-14,.cls-5{stroke-width:0.54px;}.cls-11,.cls-12,.cls-13,.cls-14,.cls-15,.cls-16,.cls-17,.cls-18,.cls-19,.cls-20,.cls-6,.cls-7,.cls-8,.cls-9{mix-blend-mode:screen;}.cls-6{opacity:0.25;fill:url(#radial-gradient);}.cls-7{fill:url(#radial-gradient-2);}.cls-8{fill:url(#radial-gradient-3);}.cls-9{opacity:0.2;fill:url(#radial-gradient-4);}.cls-11{opacity:0.15;fill:url(#radial-gradient-5);}.cls-12,.cls-15{opacity:0.5;}.cls-12{fill:url(#radial-gradient-6);}.cls-13{fill:url(#radial-gradient-7);}.cls-14{opacity:0.03;}.cls-15{fill:url(#radial-gradient-8);}.cls-16{fill:url(#radial-gradient-9);}.cls-17{fill:url(#radial-gradient-10);}.cls-18{fill:url(#radial-gradient-11);}.cls-19{fill:url(#radial-gradient-12);}.cls-20{fill:url(#radial-gradient-13);}.cls-21,.cls-22{fill:#fff;}.cls-22{font-size:23.11px;stroke-width:0.27px;font-family:MicrosoftUighur, Microsoft Uighur;letter-spacing:0.1em;}</style><radialGradient id="radial-gradient" cx="109.97" cy="-310.16" r="18.49" gradientTransform="matrix(0.98, 0.21, -0.21, 0.98, -28.61, 383.3)" gradientUnits="userSpaceOnUse"><stop offset="0.1" stop-color="#dcdddd"/><stop offset="0.11" stop-color="#d9dada"/><stop offset="0.19" stop-color="#c9c9ca"/><stop offset="0.29" stop-color="#bdbebe"/><stop offset="0.42" stop-color="#b7b7b8"/><stop offset="0.8" stop-color="#b5b5b6"/><stop offset="1" stop-color="#dcdddd"/></radialGradient><radialGradient id="radial-gradient-2" cx="93.6" cy="-289.96" r="0.62" gradientTransform="translate(-166.25 25.82) rotate(90)" gradientUnits="userSpaceOnUse"><stop offset="0" stop-color="#727171"/><stop offset="0.01" stop-color="#767575"/><stop offset="0.12" stop-color="#969595"/><stop offset="0.24" stop-color="#afb0b0"/><stop offset="0.37" stop-color="#c3c4c4"/><stop offset="0.52" stop-color="#d1d2d2"/><stop offset="0.7" stop-color="#dadada"/><stop offset="1" stop-color="#dcdddd"/></radialGradient><radialGradient id="radial-gradient-3" cx="88.44" cy="-283.6" r="0.62" gradientTransform="matrix(0, 1, -1, 0, -166.27, 36.12)" xlink:href="#radial-gradient-2"/><radialGradient id="radial-gradient-4" cx="89.3" cy="-284.66" r="4.62" gradientTransform="matrix(0.98, 0.21, -0.21, 0.98, -28.61, 383.3)" gradientUnits="userSpaceOnUse"><stop offset="0.05" stop-color="#dcdddd"/><stop offset="0.09" stop-color="#d2d3d3"/><stop offset="0.3" stop-color="#a9a9a9"/><stop offset="0.48" stop-color="#8a8a8a"/><stop offset="0.64" stop-color="#787778"/><stop offset="0.75" stop-color="#717071"/><stop offset="0.82" stop-color="#545151"/><stop offset="0.86" stop-color="#484544"/><stop offset="0.89" stop-color="#4b4948"/><stop offset="0.91" stop-color="#565352"/><stop offset="0.93" stop-color="#686565"/><stop offset="0.95" stop-color="#807f7e"/><stop offset="0.97" stop-color="#a0a09f"/><stop offset="0.99" stop-color="#c7c7c7"/><stop offset="1" stop-color="#dcdddd"/></radialGradient><radialGradient id="radial-gradient-5" cx="105.67" cy="-304.85" r="12.33" gradientTransform="translate(-166.21 1.73) rotate(90)" gradientUnits="userSpaceOnUse"><stop offset="0" stop-color="#efefef"/><stop offset="0.73" stop-color="#9fa0a0"/><stop offset="1" stop-color="#efefef"/></radialGradient><radialGradient id="radial-gradient-6" cx="105.67" cy="-304.85" r="6.16" gradientTransform="matrix(0.98, 0.21, -0.21, 0.98, -28.61, 383.3)" gradientUnits="userSpaceOnUse"><stop offset="0.15" stop-color="#fff"/><stop offset="0.24" stop-color="#eaebeb"/><stop offset="0.37" stop-color="#d2d3d3"/><stop offset="0.45" stop-color="#c9caca"/><stop offset="0.49" stop-color="#cecfcf"/><stop offset="0.71" stop-color="#e6e6e6"/><stop offset="0.85" stop-color="#efefef"/><stop offset="0.86" stop-color="#ebebeb"/><stop offset="0.86" stop-color="#dfdfde"/><stop offset="0.87" stop-color="#cccaca"/><stop offset="0.88" stop-color="#b1adad"/><stop offset="0.88" stop-color="#8e8887"/><stop offset="0.89" stop-color="#635b59"/><stop offset="0.9" stop-color="#312724"/><stop offset="0.9" stop-color="#231815"/><stop offset="0.9" stop-color="#241916"/><stop offset="0.91" stop-color="#534b48"/><stop offset="0.92" stop-color="#7c7674"/><stop offset="0.93" stop-color="#a09b9a"/><stop offset="0.94" stop-color="#bcbab9"/><stop offset="0.96" stop-color="#d3d1d1"/><stop offset="0.97" stop-color="#e3e2e2"/><stop offset="0.98" stop-color="#ececec"/><stop offset="1" stop-color="#efefef"/></radialGradient><radialGradient id="radial-gradient-7" cx="105.67" cy="-304.85" r="5.14" gradientTransform="translate(-166.21 1.73) rotate(90)" gradientUnits="userSpaceOnUse"><stop offset="0.15" stop-color="#fff"/><stop offset="0.36" stop-color="#f2f3f3"/><stop offset="0.72" stop-color="#e2e3e3"/><stop offset="1" stop-color="#dcdddd"/></radialGradient><radialGradient id="radial-gradient-8" cx="88.44" cy="-283.6" r="9.25" gradientTransform="matrix(0.98, 0.21, -0.21, 0.98, -28.61, 383.3)" gradientUnits="userSpaceOnUse"><stop offset="0.64" stop-color="#dcdddd"/><stop offset="0.71" stop-color="#dadbdb"/><stop offset="0.73" stop-color="#d4d4d4"/><stop offset="0.75" stop-color="#c8c9c9"/><stop offset="0.76" stop-color="#b8b8b8"/><stop offset="0.77" stop-color="#a3a2a2"/><stop offset="0.78" stop-color="#898786"/><stop offset="0.79" stop-color="#696766"/><stop offset="0.8" stop-color="#464342"/><stop offset="0.8" stop-color="#3e3a39"/><stop offset="0.8" stop-color="#464342"/><stop offset="0.82" stop-color="#636161"/><stop offset="0.83" stop-color="#787777"/><stop offset="0.85" stop-color="#858484"/><stop offset="0.86" stop-color="#898989"/><stop offset="0.87" stop-color="#a2a2a2"/><stop offset="0.88" stop-color="#b7b8b8"/><stop offset="0.89" stop-color="#c8c9c9"/><stop offset="0.91" stop-color="#d3d4d4"/><stop offset="0.93" stop-color="#dadbdb"/><stop offset="1" stop-color="#dcdddd"/></radialGradient><radialGradient id="radial-gradient-9" cx="89.73" cy="-285.19" r="2.81" gradientTransform="translate(-166.26 33.54) rotate(90)" gradientUnits="userSpaceOnUse"><stop offset="0.1" stop-color="#dcdddd"/><stop offset="0.24" stop-color="#b6b6b6"/><stop offset="0.38" stop-color="#949494"/><stop offset="0.53" stop-color="#7a7979"/><stop offset="0.68" stop-color="#686666"/><stop offset="0.84" stop-color="#5d5b5b"/><stop offset="1" stop-color="#595757"/></radialGradient><radialGradient id="radial-gradient-10" cx="98.36" cy="-295.83" r="2.25" gradientTransform="matrix(0.98, 0.21, -0.21, 0.98, -28.61, 383.3)" gradientUnits="userSpaceOnUse"><stop offset="0.1" stop-color="#dcdddd"/><stop offset="0.18" stop-color="#d5d6d6"/><stop offset="0.44" stop-color="#c3c3c4"/><stop offset="0.71" stop-color="#b8b8b9"/><stop offset="1" stop-color="#b4b4b5"/></radialGradient><radialGradient id="radial-gradient-11" cx="103.76" cy="-302.5" r="1.73" xlink:href="#radial-gradient-10"/><radialGradient id="radial-gradient-12" cx="92.68" cy="-288.84" r="1.57" gradientTransform="translate(-166.25 27.64) rotate(90)" gradientUnits="userSpaceOnUse"><stop offset="0.1" stop-color="#dcdddd"/><stop offset="0.19" stop-color="#e0e1e1"/><stop offset="0.58" stop-color="#ebebeb"/><stop offset="1" stop-color="#efefef"/></radialGradient><radialGradient id="radial-gradient-13" cx="93.92" cy="-290.36" r="2.01" gradientTransform="matrix(0.98, 0.21, -0.21, 0.98, -28.61, 383.3)" gradientUnits="userSpaceOnUse"><stop offset="0.1" stop-color="#848484"/><stop offset="0.25" stop-color="#a0a1a1"/><stop offset="0.43" stop-color="#babbbb"/><stop offset="0.61" stop-color="#cdcece"/><stop offset="0.8" stop-color="#d8d9d9"/><stop offset="1" stop-color="#dcdddd"/></radialGradient></defs><g class="cls-1"><g id="圖層_3" data-name="圖層 3"><circle class="cls-2" cx="157.11" cy="129.86" r="92.58"/><circle class="cls-3" cx="157.11" cy="129.86" r="88.61"/><line class="cls-4" x1="82.32" y1="126.46" x2="139.03" y2="107.26"/><line class="cls-5" x1="139.18" y1="106.99" x2="157.11" y2="106.29"/><line class="cls-5" x1="138.76" y1="107.72" x2="157.11" y2="108.44"/><line class="cls-5" x1="138.84" y1="107.33" x2="157.1" y2="107.32"/><line class="cls-3" x1="176.32" y1="107.25" x2="232.78" y2="117.45"/><line class="cls-3" x1="177.47" y1="109.43" x2="232.57" y2="122.06"/><line class="cls-3" x1="176.55" y1="108.2" x2="232.64" y2="119.64"/><line class="cls-3" x1="176.1" y1="106.35" x2="232.68" y2="115.29"/><line class="cls-3" x1="175.77" y1="105.4" x2="232.81" y2="113.33"/><polygon class="cls-2" points="200.01 148.07 115.47 148.11 157.71 74.87 200.01 148.07"/><circle class="cls-6" cx="143.96" cy="103.1" r="18.49"/><circle class="cls-7" cx="123.71" cy="119.42" r="0.62" transform="translate(-18.99 215.33) rotate(-77.89)"/><circle class="cls-8" cx="117.33" cy="124.55" r="0.62" transform="translate(-29.06 213.16) rotate(-77.89)"/><circle class="cls-9" cx="118.4" cy="123.7" r="4.62"/><line class="cls-10" x1="138.63" y1="107.39" x2="117.33" y2="124.55"/><circle class="cls-11" cx="138.63" cy="107.39" r="12.33" transform="translate(4.55 220.42) rotate(-77.89)"/><circle class="cls-12" cx="138.63" cy="107.39" r="6.16"/><circle class="cls-13" cx="138.63" cy="107.39" r="5.14" transform="translate(4.55 220.42) rotate(-77.89)"/><polyline class="cls-14" points="138.63 107.39 140.02 117.86 138.63 107.39 137.25 96.93 138.63 107.39 128.17 108.78 138.63 107.39 149.1 106.01 138.63 107.39 139.4 110.13 138.63 107.39 137.87 104.65 138.63 107.39 135.89 108.16 138.63 107.39 141.37 106.63 138.63 107.39 136.98 133.26 138.63 107.39 140.29 81.53 138.63 107.39 112.77 105.74 138.63 107.39 164.5 109.05 138.63 107.39 147.02 124.86 138.63 107.39 130.25 89.93 138.63 107.39 121.17 115.78 138.63 107.39 156.09 99.01 138.63 107.39 147.13 117.81 138.63 107.39 130.14 96.98 138.63 107.39 128.22 115.89 138.63 107.39 149.05 98.9 138.63 107.39 142.85 132.22 138.63 107.39 134.41 82.56 138.63 107.39 113.8 111.61 138.63 107.39 163.46 103.17 138.63 107.39 162.74 126.3 138.63 107.39 114.53 88.48 138.63 107.39 119.72 131.5 138.63 107.39 157.54 83.29 138.63 107.39 143.39 127.75 138.63 107.39 133.88 87.04 138.63 107.39 118.28 112.15 138.63 107.39 158.99 102.64 138.63 107.39 140.06 135.39 138.63 107.39 137.2 79.4 138.63 107.39 110.64 108.82 138.63 107.39 166.63 105.96 138.63 107.39 147.34 128.35 138.63 107.39 129.92 86.44 138.63 107.39 117.68 116.1 138.63 107.39 159.59 98.68 138.63 107.39 147 118.64 138.63 107.39 130.26 96.14 138.63 107.39 127.38 115.76 138.63 107.39 149.88 99.02 138.63 107.39 140.32 124.9 138.63 107.39 136.94 89.88 138.63 107.39 121.12 109.08 138.63 107.39 156.14 105.7 138.63 107.39 138.73 107.65 138.63 107.39 138.54 107.13 138.63 107.39 138.37 107.49 138.63 107.39 138.89 107.3 138.63 107.39 142.28 118.11 138.63 107.39 134.99 96.67 138.63 107.39 127.91 111.04 138.63 107.39 149.35 103.75 138.63 107.39 145.28 119.66 138.63 107.39 131.98 95.13 138.63 107.39 126.37 114.04 138.63 107.39 150.9 100.74"/><circle class="cls-15" cx="117.33" cy="124.55" r="9.25"/><circle class="cls-16" cx="118.93" cy="123.27" r="2.81" transform="translate(-26.54 213.7) rotate(-77.89)"/><circle class="cls-17" cx="129.6" cy="114.67" r="2.25"/><circle class="cls-18" cx="136.28" cy="109.29" r="1.73"/><circle class="cls-19" cx="122.58" cy="120.33" r="1.57" transform="translate(-20.78 214.95) rotate(-77.89)"/><circle class="cls-20" cx="124.11" cy="119.09" r="2.01"/><path class="cls-21" d="M202.26,142H164.49a1.67,1.67,0,0,0,0,3.29h37.77a1.67,1.67,0,0,0,0-3.29Z"/><path class="cls-21" d="M173.65,140.69A1.65,1.65,0,0,1,175.3,139h-7.94a1.65,1.65,0,0,1,0,3.29h7.94A1.65,1.65,0,0,1,173.65,140.69Z"/><path class="cls-21" d="M180,139.47h10.77a1.69,1.69,0,0,0,0-3.29H151.7a1.69,1.69,0,0,0,0,3.29H180Z"/><circle class="cls-21" cx="205.7" cy="143.66" r="1.62"/><text class="cls-22" transform="translate(88.24 178.99)">Light Up Studio</text></g></g></svg>